<svg width="46" height="52" viewBox="0 0 46 52" fill="none" xmlns="http://www.w3.org/2000/svg">
<path d="M22.3485 0C24.5576 0 26.3485 1.79086 26.3485 4V18.1855L38.2411 9.82422C40.0481 8.55368 42.5426 8.98812 43.8134 10.7949C45.084 12.602 44.6496 15.0974 42.8427 16.3682L29.6942 25.6123L43.1591 34.1328C45.0258 35.314 45.5813 37.7846 44.4003 39.6514C43.2191 41.5181 40.7485 42.0737 38.8817 40.8926L26.3485 32.9629V47.8066C26.3482 50.0155 24.5575 51.8066 22.3485 51.8066C20.1396 51.8066 18.3488 50.0155 18.3485 47.8066V33.5908L7.00769 41.5654C5.20074 42.8359 2.70616 42.4014 1.43542 40.5947C0.164789 38.7877 0.599234 36.2922 2.40613 35.0215L15.286 25.9639L1.86218 17.4717C-0.0045612 16.2906 -0.56097 13.82 0.619995 11.9531C1.80108 10.0863 4.27265 9.52993 6.13953 10.7109L18.3485 18.4346V4C18.3485 1.79091 20.1394 8.35022e-05 22.3485 0Z" fill="#B217C8"/>
</svg>
